{"title":"Anna Karenina (Greta Garbo 1935).avi","uid":4491880,"size":732817408,"categoryP":"video","categoryS":"movies","magnet":"?xt=urn:btih:048af85033f47314df5886ca84a80cf2d41ce829&amp;dn=Anna+Karenina+%28Greta+Garbo+1935%29.avi&amp;tr=udp%3A%2F%2Ftracker.openbittorrent.com%3A80&amp;tr=udp%3A%2F%2Fopen.demonii.com%3A1337&amp;tr=udp%3A%2F%2Ftracker.coppersurfer.tk%3A6969&amp;tr=udp%3A%2F%2Fexodus.desync.com%3A6969","seeders":4,"leechers":0,"uploader":"johnefp","files":-1,"time":1226013400,"description":"The married Anna Karenina falls in love with Count Vronsky despite her husband's refusal to grant a divorce, and both must contend with the social repercussions.\n\nIMBD &lt;a href=&quot;\nhttp://www.imdb.com/title/tt0026071/&quot; rel=&quot;nofollow&quot; target=&quot;_NEW&quot;&gt;\nhttp://www.imdb.com/title/tt0026071/&lt;/a&gt;\n\nSUBS &lt;a href=&quot;\nhttp://www.opensubtitles.org/en/search/sublanguageid-all/idmovie-9950&quot; rel=&quot;nofollow&quot; target=&quot;_NEW&quot;&gt;\nhttp://www.opensubtitles.org/en/search/sublanguageid-all/idmovie-9950&lt;/a&gt;\n\nDirector:\nClarence Brown\n\n        Greta Garbo\t ... \tAnna Karenina\n\n\tFredric March\t... \tVronsky\n\tFreddie Bartholomew\t... \tSergei\n\n\tMaureen O'Sullivan\t... \tKitty\n\tMay Robson\t... \tCountess Vronsky\n\n   Video\n      Format : MPEG-4 Visual\n      Format profile : Streaming Video@L1\n      Format settings, BVOP : Yes\n      Format settings, QPel : No\n      Format settings, GMC : No warppoints\n      Format settings, Matrix : Custom\n      Codec ID : XVID\n      Codec ID/Hint : XviD\n      Duration : 1h 32mn\n      Bit rate : 967 Kbps\n      Width : 720 pixels\n      Height : 544 pixels\n      Display aspect ratio : 4/3\n      Frame rate : 23.976 fps\n      Resolution : 24 bits\n      Colorimetry : 4:2:0\n      Scan type : Progressive\n      Bits/(Pixel*Frame) : 0.103\n      Stream size : 641 MiB (92%)\n   Audio\n      Format : MPEG Audio\n      Format version : Version 1\n      Format profile : Layer 3\n      Codec ID : 55\n      Codec ID/Hint : MP3\n      Duration : 1h 32mn\n      Bit rate mode : Constant\n      Bit rate : 80.0 Kbps\n      Channel(s) : 2 channels\n      Sampling rate : 32.0 KHz\n      Resolution : 16 bits\n      Stream size : 53.1 MiB (8%)\n      Alignment : Aligned on interleaves\n      Interleave, duration : 83 ms (2.00 video frames)\n      Interleave, preload duration : 504 ms\n      Writing library : LAME3.96.1\n\n   Enjoy  and  Seed\n","torrent":{"xt":"urn:btih:048af85033f47314df5886ca84a80cf2d41ce829","amp;dn":"Anna+Karenina+%28Greta+Garbo+1935%29.avi","amp;tr":["udp%3A%2F%2Ftracker.openbittorrent.com%3A80","udp%3A%2F%2Fopen.demonii.com%3A1337","udp%3A%2F%2Ftracker.coppersurfer.tk%3A6969","udp%3A%2F%2Fexodus.desync.com%3A6969"],"infoHash":"048af85033f47314df5886ca84a80cf2d41ce829","infoHashBuffer":{"type":"Buffer","data":[4,138,248,80,51,244,115,20,223,88,134,202,132,168,12,242,212,28,232,41]},"announce":[],"urlList":[]}}